<svg xmlns="http://www.w3.org/2000/svg" viewBox="0 0 2048 1024" preserveAspectRatio="none">
  <defs>
    <linearGradient id="ocean" x1="0" y1="0" x2="0" y2="1">
      <stop offset="0%" stop-color="#8f95a1"/>
      <stop offset="55%" stop-color="#7c828f"/>
      <stop offset="100%" stop-color="#666c79"/>
    </linearGradient>
  </defs>
  <rect width="2048" height="1024" fill="url(#ocean)"/>
  <g stroke="#f1f5f9" stroke-opacity="0.16" stroke-width="1" fill="none">
    <path d="M0 170 H2048"/>
    <path d="M0 341 H2048"/>
    <path d="M0 512 H2048"/>
    <path d="M0 683 H2048"/>
    <path d="M0 854 H2048"/>
    <path d="M256 0 V1024"/>
    <path d="M512 0 V1024"/>
    <path d="M768 0 V1024"/>
    <path d="M1024 0 V1024"/>
    <path d="M1280 0 V1024"/>
    <path d="M1536 0 V1024"/>
    <path d="M1792 0 V1024"/>
  </g>
  <g fill="#2f2349" fill-opacity="0.94" stroke="#1b1430" stroke-opacity="0.6" stroke-width="2">
    <path d="M170 250 C250 190, 380 190, 450 260 C520 325, 520 420, 440 470 C360 520, 240 505, 190 430 C140 355, 120 295, 170 250 Z"/>
    <path d="M430 560 C520 520, 680 540, 760 620 C830 690, 830 795, 720 840 C610 880, 470 850, 410 760 C350 670, 355 595, 430 560 Z"/>
    <path d="M875 265 C950 225, 1080 240, 1140 300 C1200 360, 1185 450, 1090 490 C995 530, 890 505, 845 435 C800 365, 805 305, 875 265 Z"/>
    <path d="M1120 555 C1240 500, 1450 530, 1545 620 C1630 700, 1610 825, 1460 875 C1310 925, 1145 885, 1070 780 C995 675, 1010 605, 1120 555 Z"/>
    <path d="M1500 300 C1610 240, 1785 250, 1880 330 C1970 405, 1980 505, 1880 575 C1780 645, 1620 640, 1520 560 C1420 480, 1395 365, 1500 300 Z"/>
    <path d="M1735 710 C1795 680, 1890 690, 1945 735 C1995 777, 1995 845, 1930 885 C1865 925, 1775 912, 1725 865 C1675 818, 1675 742, 1735 710 Z"/>
  </g>
</svg>
