<svg xmlns="http://www.w3.org/2000/svg" viewBox="0 0 2048 1024" preserveAspectRatio="none">
  <defs>
    <linearGradient id="sky" x1="0" y1="0" x2="0" y2="1">
      <stop offset="0%" stop-color="#020617"/>
      <stop offset="100%" stop-color="#00020a"/>
    </linearGradient>
    <radialGradient id="nebulaA" cx="20%" cy="15%" r="45%">
      <stop offset="0%" stop-color="#7c3aed" stop-opacity="0.24"/>
      <stop offset="100%" stop-color="#7c3aed" stop-opacity="0"/>
    </radialGradient>
    <radialGradient id="nebulaB" cx="80%" cy="30%" r="42%">
      <stop offset="0%" stop-color="#2563eb" stop-opacity="0.2"/>
      <stop offset="100%" stop-color="#2563eb" stop-opacity="0"/>
    </radialGradient>
  </defs>
  <rect width="2048" height="1024" fill="url(#sky)"/>
  <rect width="2048" height="1024" fill="url(#nebulaA)"/>
  <rect width="2048" height="1024" fill="url(#nebulaB)"/>
  <g fill="#dbeafe" opacity="0.9">
    <circle cx="120" cy="110" r="1.8"/><circle cx="220" cy="190" r="1.4"/><circle cx="340" cy="70" r="1.7"/>
    <circle cx="460" cy="150" r="1.5"/><circle cx="620" cy="100" r="1.6"/><circle cx="760" cy="220" r="1.4"/>
    <circle cx="910" cy="90" r="1.7"/><circle cx="1030" cy="180" r="1.4"/><circle cx="1150" cy="70" r="1.6"/>
    <circle cx="1290" cy="160" r="1.5"/><circle cx="1420" cy="95" r="1.8"/><circle cx="1560" cy="210" r="1.4"/>
    <circle cx="1700" cy="120" r="1.7"/><circle cx="1820" cy="175" r="1.5"/><circle cx="1960" cy="90" r="1.6"/>
    <circle cx="150" cy="330" r="1.4"/><circle cx="300" cy="280" r="1.6"/><circle cx="480" cy="360" r="1.5"/>
    <circle cx="670" cy="320" r="1.8"/><circle cx="820" cy="390" r="1.4"/><circle cx="1010" cy="350" r="1.6"/>
    <circle cx="1210" cy="305" r="1.5"/><circle cx="1390" cy="370" r="1.7"/><circle cx="1580" cy="330" r="1.5"/>
    <circle cx="1760" cy="395" r="1.6"/><circle cx="1940" cy="345" r="1.4"/>
  </g>
</svg>
